<mxfile host="65bd71144e">
    <diagram id="mWhXp6WdUIwCwgcpMSYr" name="Страница 1">
        <mxGraphModel dx="1248" dy="1752" grid="0" gridSize="10" guides="1" tooltips="1" connect="1" arrows="1" fold="1" page="1" pageScale="1" pageWidth="827" pageHeight="1169" background="none" math="0" shadow="0">
            <root>
                <mxCell id="0"/>
                <mxCell id="1" parent="0"/>
                <mxCell id="4" value="" style="edgeStyle=none;html=1;entryX=0.5;entryY=0;entryDx=0;entryDy=0;fontStyle=1;fontSize=16;" parent="1" source="2" target="22" edge="1">
                    <mxGeometry relative="1" as="geometry"/>
                </mxCell>
                <mxCell id="2" value="start" style="ellipse;whiteSpace=wrap;html=1;fontStyle=1;fontSize=16;" parent="1" vertex="1">
                    <mxGeometry x="140" y="-470" width="90" height="40" as="geometry"/>
                </mxCell>
                <mxCell id="7" value="" style="edgeStyle=none;html=1;fontStyle=1;fontSize=16;" parent="1" source="3" target="6" edge="1">
                    <mxGeometry relative="1" as="geometry"/>
                </mxCell>
                <mxCell id="3" value="count = 0" style="whiteSpace=wrap;html=1;fontStyle=1;fontSize=16;" parent="1" vertex="1">
                    <mxGeometry x="115" y="-300" width="120" height="60" as="geometry"/>
                </mxCell>
                <mxCell id="9" value="" style="edgeStyle=none;html=1;fontSize=16;fontStyle=1" parent="1" source="6" target="8" edge="1">
                    <mxGeometry relative="1" as="geometry"/>
                </mxCell>
                <mxCell id="6" value="i = 0&lt;br style=&quot;font-size: 16px;&quot;&gt;i &amp;lt; array.Length&lt;br style=&quot;font-size: 16px;&quot;&gt;i++" style="shape=hexagon;perimeter=hexagonPerimeter2;whiteSpace=wrap;html=1;fixedSize=1;fontStyle=1;fontSize=16;" parent="1" vertex="1">
                    <mxGeometry x="107.5" y="-210" width="135" height="90" as="geometry"/>
                </mxCell>
                <mxCell id="11" value="yes" style="edgeStyle=none;html=1;fontSize=16;fontStyle=1" parent="1" source="8" target="10" edge="1">
                    <mxGeometry relative="1" as="geometry"/>
                </mxCell>
                <mxCell id="8" value="array[i].Lenght &amp;lt;= 3" style="rhombus;whiteSpace=wrap;html=1;fontStyle=1;fontSize=16;" parent="1" vertex="1">
                    <mxGeometry x="67.5" y="-80" width="215" height="110" as="geometry"/>
                </mxCell>
                <mxCell id="10" value="count++" style="whiteSpace=wrap;html=1;fontStyle=1;fontSize=16;" parent="1" vertex="1">
                    <mxGeometry x="115" y="90" width="120" height="60" as="geometry"/>
                </mxCell>
                <mxCell id="12" value="" style="endArrow=classic;html=1;entryX=0;entryY=0.5;entryDx=0;entryDy=0;exitX=0;exitY=0.5;exitDx=0;exitDy=0;fontStyle=1;fontSize=16;" parent="1" source="10" target="6" edge="1">
                    <mxGeometry width="50" height="50" relative="1" as="geometry">
                        <mxPoint x="60" y="-100" as="sourcePoint"/>
                        <mxPoint x="270" as="targetPoint"/>
                        <Array as="points">
                            <mxPoint x="20" y="120"/>
                            <mxPoint x="20" y="-165"/>
                        </Array>
                    </mxGeometry>
                </mxCell>
                <mxCell id="13" value="no" style="endArrow=classic;html=1;exitX=0;exitY=0.5;exitDx=0;exitDy=0;fontSize=16;fontStyle=1" parent="1" source="8" edge="1">
                    <mxGeometry width="50" height="50" relative="1" as="geometry">
                        <mxPoint x="220" y="50" as="sourcePoint"/>
                        <mxPoint x="20" y="-25" as="targetPoint"/>
                    </mxGeometry>
                </mxCell>
                <mxCell id="14" value="new array = new array[count]&lt;br style=&quot;font-size: 16px;&quot;&gt;count = 0" style="rounded=0;whiteSpace=wrap;html=1;fontSize=16;fontStyle=1" parent="1" vertex="1">
                    <mxGeometry x="366.5" y="-205" width="230" height="80" as="geometry"/>
                </mxCell>
                <mxCell id="15" value="" style="edgeStyle=none;html=1;exitX=0.437;exitY=0.998;exitDx=0;exitDy=0;exitPerimeter=0;fontStyle=1;fontSize=16;" parent="1" source="14" target="17" edge="1">
                    <mxGeometry relative="1" as="geometry">
                        <mxPoint x="474" y="-129" as="sourcePoint"/>
                    </mxGeometry>
                </mxCell>
                <mxCell id="16" value="" style="edgeStyle=none;html=1;fontSize=16;exitX=0.529;exitY=0.997;exitDx=0;exitDy=0;exitPerimeter=0;entryX=0.5;entryY=0;entryDx=0;entryDy=0;fontStyle=1" parent="1" source="17" target="19" edge="1">
                    <mxGeometry relative="1" as="geometry">
                        <Array as="points"/>
                        <mxPoint x="466.0772200772201" y="-10" as="sourcePoint"/>
                    </mxGeometry>
                </mxCell>
                <mxCell id="17" value="i = 0&lt;br style=&quot;font-size: 16px;&quot;&gt;i &amp;lt; array.Length&lt;br style=&quot;font-size: 16px;&quot;&gt;i++" style="shape=hexagon;perimeter=hexagonPerimeter2;whiteSpace=wrap;html=1;fixedSize=1;fontStyle=1;fontSize=16;" parent="1" vertex="1">
                    <mxGeometry x="399" y="-99" width="135" height="89" as="geometry"/>
                </mxCell>
                <mxCell id="18" value="yes" style="edgeStyle=none;html=1;fontSize=16;fontStyle=1" parent="1" source="19" edge="1">
                    <mxGeometry relative="1" as="geometry">
                        <mxPoint x="471" y="201" as="targetPoint"/>
                    </mxGeometry>
                </mxCell>
                <mxCell id="19" value="array[i].Lenght &amp;lt;= 3" style="rhombus;whiteSpace=wrap;html=1;fontStyle=1;fontSize=16;" parent="1" vertex="1">
                    <mxGeometry x="363.5" y="20" width="215" height="110" as="geometry"/>
                </mxCell>
                <mxCell id="21" value="new array[count] = array[i]&lt;br style=&quot;font-size: 16px;&quot;&gt;&lt;span style=&quot;font-size: 16px;&quot;&gt;count++&lt;/span&gt;" style="rounded=0;whiteSpace=wrap;html=1;fontSize=16;fontStyle=1" parent="1" vertex="1">
                    <mxGeometry x="348.5" y="200" width="245" height="80" as="geometry"/>
                </mxCell>
                <mxCell id="22" value="&lt;span style=&quot;font-size: 16px&quot;&gt;array&amp;nbsp;&lt;/span&gt;" style="shape=parallelogram;perimeter=parallelogramPerimeter;whiteSpace=wrap;html=1;fixedSize=1;fontSize=16;fontStyle=1" parent="1" vertex="1">
                    <mxGeometry x="100" y="-400" width="170" height="80" as="geometry"/>
                </mxCell>
                <mxCell id="23" value="" style="endArrow=classic;html=1;fontSize=16;exitX=1;exitY=0.5;exitDx=0;exitDy=0;entryX=0;entryY=0.5;entryDx=0;entryDy=0;fontStyle=1" parent="1" source="6" target="14" edge="1">
                    <mxGeometry width="50" height="50" relative="1" as="geometry">
                        <mxPoint x="390" y="-60" as="sourcePoint"/>
                        <mxPoint x="440" y="-110" as="targetPoint"/>
                    </mxGeometry>
                </mxCell>
                <mxCell id="26" value="" style="endArrow=classic;html=1;fontSize=16;exitX=1;exitY=0.5;exitDx=0;exitDy=0;entryX=-0.015;entryY=0.43;entryDx=0;entryDy=0;entryPerimeter=0;fontStyle=1" parent="1" source="17" target="27" edge="1">
                    <mxGeometry width="50" height="50" relative="1" as="geometry">
                        <mxPoint x="581.4999999999998" y="-45" as="sourcePoint"/>
                        <mxPoint x="679" y="-30" as="targetPoint"/>
                        <Array as="points"/>
                    </mxGeometry>
                </mxCell>
                <mxCell id="27" value="&lt;span style=&quot;font-size: 16px;&quot;&gt;new array&lt;/span&gt;" style="shape=document;whiteSpace=wrap;html=1;boundedLbl=1;fontSize=16;fontStyle=1" parent="1" vertex="1">
                    <mxGeometry x="669" y="-76" width="90" height="49" as="geometry"/>
                </mxCell>
                <mxCell id="28" value="end" style="ellipse;whiteSpace=wrap;html=1;fontSize=16;fontStyle=1" parent="1" vertex="1">
                    <mxGeometry x="684.5" y="49.5" width="65" height="30" as="geometry"/>
                </mxCell>
                <mxCell id="29" value="" style="endArrow=classic;html=1;fontSize=16;exitX=0.533;exitY=0.867;exitDx=0;exitDy=0;exitPerimeter=0;entryX=0.5;entryY=0;entryDx=0;entryDy=0;fontStyle=1" parent="1" source="27" target="28" edge="1">
                    <mxGeometry width="50" height="50" relative="1" as="geometry">
                        <mxPoint x="739" y="59.5" as="sourcePoint"/>
                        <mxPoint x="789" y="9.5" as="targetPoint"/>
                    </mxGeometry>
                </mxCell>
                <mxCell id="31" value="" style="endArrow=classic;html=1;fontSize=16;entryX=0;entryY=0.5;entryDx=0;entryDy=0;exitX=0;exitY=0.5;exitDx=0;exitDy=0;fontStyle=1" parent="1" source="21" target="17" edge="1">
                    <mxGeometry width="50" height="50" relative="1" as="geometry">
                        <mxPoint x="429" y="350" as="sourcePoint"/>
                        <mxPoint x="209" y="280" as="targetPoint"/>
                        <Array as="points">
                            <mxPoint x="309" y="240"/>
                            <mxPoint x="309" y="-54"/>
                        </Array>
                    </mxGeometry>
                </mxCell>
                <mxCell id="32" value="" style="endArrow=classic;html=1;exitX=0.445;exitY=1.022;exitDx=0;exitDy=0;exitPerimeter=0;fontStyle=1;fontSize=16;" parent="1" source="22" target="3" edge="1">
                    <mxGeometry width="50" height="50" relative="1" as="geometry">
                        <mxPoint x="430" y="-160" as="sourcePoint"/>
                        <mxPoint x="480" y="-210" as="targetPoint"/>
                    </mxGeometry>
                </mxCell>
                <mxCell id="35" value="" style="endArrow=classic;html=1;fontSize=16;exitX=0;exitY=0.5;exitDx=0;exitDy=0;fontStyle=1" parent="1" source="19" edge="1">
                    <mxGeometry width="50" height="50" relative="1" as="geometry">
                        <mxPoint x="340" y="140" as="sourcePoint"/>
                        <mxPoint x="310" y="75" as="targetPoint"/>
                    </mxGeometry>
                </mxCell>
                <mxCell id="36" value="no" style="edgeLabel;html=1;align=center;verticalAlign=middle;resizable=0;points=[];fontSize=16;fontStyle=1" parent="35" vertex="1" connectable="0">
                    <mxGeometry x="-0.0672" y="1" relative="1" as="geometry">
                        <mxPoint y="-1" as="offset"/>
                    </mxGeometry>
                </mxCell>
            </root>
        </mxGraphModel>
    </diagram>
</mxfile>